<?xml version="1.0" encoding="UTF-8" standalone="no"?>
<!-- Created with Inkscape (http://www.inkscape.org/) -->

<svg
   width="451.55557mm"
   height="254mm"
   viewBox="0 0 451.55557 254"
   version="1.1"
   id="svg5"
   inkscape:version="1.1.2 (b8e25be833, 2022-02-05)"
   sodipodi:docname="Logo Innovacion3.svg"
   xmlns:inkscape="http://www.inkscape.org/namespaces/inkscape"
   xmlns:sodipodi="http://sodipodi.sourceforge.net/DTD/sodipodi-0.dtd"
   xmlns="http://www.w3.org/2000/svg"
   xmlns:svg="http://www.w3.org/2000/svg">
  <sodipodi:namedview
     id="namedview7"
     pagecolor="#505050"
     bordercolor="#eeeeee"
     borderopacity="1"
     inkscape:pageshadow="0"
     inkscape:pageopacity="0"
     inkscape:pagecheckerboard="0"
     inkscape:document-units="mm"
     showgrid="false"
     fit-margin-top="0"
     fit-margin-left="0"
     fit-margin-right="0"
     fit-margin-bottom="0"
     inkscape:zoom="0.52249848"
     inkscape:cx="846.89242"
     inkscape:cy="478.47029"
     inkscape:window-width="1920"
     inkscape:window-height="1017"
     inkscape:window-x="-8"
     inkscape:window-y="-8"
     inkscape:window-maximized="1"
     inkscape:current-layer="layer1" />
  <defs
     id="defs2" />
  <g
     inkscape:label="Capa 1"
     inkscape:groupmode="layer"
     id="layer1"
     transform="translate(271.16766,18.35018)">
    <path
       style="fill:#d45500;stroke-width:0.352778"
       d="m -215.7033,205.16244 c -5.273,-1.70672 -6.76256,-7.50095 -2.78457,-10.83161 3.17648,-2.65959 9.42983,-2.03482 11.67185,1.16612 0.73332,1.04695 0.71271,1.16424 -0.28439,1.61855 -0.72269,0.32928 -0.96329,0.25475 -1.67569,-0.51908 -0.98139,-1.06602 -3.29886,-2.2029 -4.51282,-2.21385 -2.3842,-0.0215 -5.31052,2.51977 -5.31353,4.61439 -0.003,2.16883 2.75179,4.5484 5.26716,4.54954 1.50168,7e-4 4.14019,-1.23959 4.64544,-2.18365 0.37228,-0.69562 0.38753,-0.69441 1.23072,0.0977 l 0.85376,0.80206 -0.79573,0.85293 c -1.89394,2.03008 -5.56092,2.93416 -8.3022,2.04688 z m 18.70769,-4.7294 -4.14566,-5.05929 -0.0979,4.96859 -0.0979,4.96859 h -1.22504 -1.22503 v -6.35 -6.35 h 1.67981 1.67982 l 4.14102,5.15259 4.14101,5.15258 v -5.15258 -5.15259 h 1.23473 1.23472 v 6.31448 6.31448 l -1.58699,0.12622 -1.58698,0.12621 z m 14.80403,4.58124 c -3.23189,-1.14676 -4.66219,-3.02746 -4.66219,-6.13033 0,-3.47109 2.50213,-5.86405 6.46023,-6.17837 2.9124,-0.23127 4.88164,0.35369 6.55512,1.94721 5.34869,5.09312 -1.00149,12.97006 -8.35316,10.36149 z m 5.19109,-1.98373 c 4.20568,-2.17485 3.54383,-7.16055 -1.11047,-8.36517 -4.45248,-1.15239 -8.38999,3.55631 -5.67349,6.78469 1.67269,1.98788 4.6533,2.68228 6.78396,1.58048 z m 25.1478,1.98373 c -3.19578,-1.13394 -4.77908,-3.19244 -4.71296,-6.12745 0.0644,-2.85799 1.75513,-5.06263 4.53973,-5.9196 0.73253,-0.22544 1.56896,-0.48706 1.85874,-0.58137 0.40865,-0.13301 0.32949,-0.32134 -0.35278,-0.83933 l -0.87964,-0.66786 1.23472,-1.05981 c 0.6791,-0.58289 1.3141,-1.06273 1.41111,-1.0663 0.31973,-0.0118 1.9335,1.33781 1.75862,1.4707 -0.0941,0.0715 -0.67984,0.54232 -1.30163,1.04621 l -1.1305,0.91617 1.30689,0.24052 c 2.09784,0.38609 4.08044,1.40294 5.10164,2.61656 4.47648,5.32 -1.84222,12.45241 -8.83394,9.97156 z m 4.97881,-1.94844 c 2.9121,-1.21675 3.94936,-4.40376 2.13503,-6.55996 -2.38741,-2.83728 -6.33452,-2.85328 -8.70569,-0.0353 -3.07268,3.65167 1.83234,8.57506 6.57066,6.59526 z m 12.29565,1.92696 c -3.65095,-1.26095 -5.60017,-4.41252 -4.66324,-7.5397 1.57836,-5.26808 9.27455,-6.57623 13.36757,-2.27212 l 1.18403,1.24509 -0.91044,0.59655 c -0.89438,0.58602 -0.9309,0.57484 -2.07068,-0.63368 -2.34741,-2.48898 -5.83075,-2.52004 -8.27698,-0.0738 -3.4271,3.42711 1.28045,8.69013 6.13304,6.85669 0.54621,-0.20637 1.41352,-0.77622 1.92736,-1.26634 0.7834,-0.74723 1.05397,-0.82705 1.67569,-0.49431 0.4078,0.21824 0.74145,0.62127 0.74145,0.89561 0,1.16609 -4.29718,3.37971 -6.49426,3.34541 -0.40573,-0.006 -1.58182,-0.30306 -2.61354,-0.65939 z m 30.62496,0.34129 c -4.28203,-1.30253 -6.53485,-4.96487 -5.12688,-8.33461 1.20212,-2.87709 3.58164,-4.36784 6.99258,-4.3808 2.421583,-0.009 4.242023,0.67893 5.809499,2.196 1.32382,1.28125 1.429794,1.85316 0.441399,2.38213 -0.593016,0.31738 -0.900973,0.18154 -1.936849,-0.85434 -1.674608,-1.67461 -3.531049,-2.20767 -5.635979,-1.61832 -4.31785,1.20892 -5.04866,5.93832 -1.24773,8.07457 2.06061,1.15812 4.42526,0.92694 6.351396,-0.62094 1.215354,-0.97669 1.481744,-1.06161 2.106411,-0.6715 1.01297,0.63261 0.892962,1.16364 -0.503714,2.22894 -2.061058,1.57204 -5.120383,2.24672 -7.250133,1.59887 z m 39.601589,0.0496 -2.557639,-0.10365 v -6.36997 -6.36997 l 4.497917,0.12362 c 3.980628,0.1094 4.65093,0.21875 5.828386,0.95081 2.265761,1.40869 3.23064,3.00238 3.244046,5.35821 0.0099,1.7492 -0.140656,2.22929 -1.064758,3.39405 -1.968013,2.48053 -4.468812,3.23895 -9.947952,3.0169 z m 6.261806,-2.57654 c 1.815242,-1.08391 2.452677,-2.05387 2.461598,-3.74573 0.01552,-2.94059 -2.592507,-4.68658 -7.000444,-4.68658 h -2.163932 v 4.58611 4.58611 l 2.734027,-10e-4 c 2.142547,-0.001 3.001148,-0.16082 3.968751,-0.73859 z m 36.159723,2.54346 c -2.277466,-0.5905 -4.130418,-1.98219 -5.071195,-3.80883 -0.701488,-1.36203 -0.489458,-4.45338 0.397256,-5.79185 1.147502,-1.73213 4.105896,-3.13989 6.589279,-3.13553 5.662376,0.01 9.328704,5.01604 6.805542,9.29248 -0.756049,1.28141 -0.756705,1.29809 -0.06784,1.72829 0.905913,0.56575 0.877207,0.83495 -0.161618,1.51561 -0.785791,0.51488 -0.930737,0.51346 -1.740231,-0.0169 -0.653391,-0.42812 -1.05682,-0.48559 -1.551235,-0.22099 -0.950778,0.50885 -3.951485,0.76146 -5.199955,0.43776 z m 4.172941,-2.28475 c 2.784567,-1.16346 3.91909,-4.32744 2.292982,-6.39471 -0.867054,-1.10228 -3.205533,-2.28082 -4.525645,-2.28082 -1.497147,0 -3.82039,1.27982 -4.577504,2.52164 -0.994748,1.63158 -0.91398,3.16849 0.238485,4.53812 1.662522,1.97579 4.210618,2.60229 6.571682,1.61577 z m 13.056638,2.11152 c -1.9403237,-0.63307 -3.4329759,-1.72888 -4.3283189,-3.17758 -0.6291192,-1.01793 -0.7304264,-1.751 -0.7304264,-5.28535 v -4.1035 h 1.0583334 1.0583333 v 3.652 c 0,3.20952 0.097021,3.79723 0.8007809,4.85069 1.5550621,2.32779 4.6697267,3.07642 7.27327261,1.74819 2.19596409,-1.1203 2.50928019,-1.91416 2.50928019,-6.35791 v -3.89297 h 1.2347223 1.2347222 v 3.7155 c 0,4.06048 -0.3691255,5.40126 -1.905942,6.92298 -2.0246587,2.00476 -5.4804699,2.8168 -8.2047576,1.92795 z m 55.971812,0.0239 c 0,-0.29452 6.888061,-12.41137 7.5135,-13.21707 0.25871,-0.33327 0.735048,0.21711 1.831919,2.11667 2.735513,4.73736 5.17355,8.90779 5.88318,10.06357 l 0.703947,1.14653 h -1.363977 -1.363976 l -2.633546,-4.58096 c -1.44845,-2.51953 -2.712922,-4.5803 -2.809935,-4.57949 -0.09701,7e-4 -1.082859,1.62568 -2.190765,3.61082 l -2.014375,3.60935 3.072709,0.0939 c 2.619664,0.0801 3.163732,0.20285 3.69007,0.83283 0.339548,0.4064 0.617361,0.84039 0.617361,0.96442 0,0.12402 -2.460625,0.2255 -5.468056,0.2255 -3.007431,0 -5.468056,-0.12874 -5.468056,-0.28609 z m 29.196285,0.18231 c -0.337389,-0.0676 -2.480515,-2.37372 -4.7625,-5.1248 l -4.149062,-5.00198 -0.09788,5.02709 -0.09788,5.02708 h -1.048649 -1.048647 v -6.35 -6.35 h 1.542994 1.542997 l 4.013253,4.93661 c 2.207292,2.71514 4.132319,4.93764 4.27784,4.93889 0.145521,0.001 0.264583,-2.22022 0.264583,-4.93661 v -4.93889 h 1.058334 1.058333 v 6.30996 6.30996 l -0.970139,0.13776 c -0.533576,0.0758 -1.246187,0.0825 -1.583577,0.0149 z m 5.174785,-0.0795 c -0.400191,-0.14173 -0.06918,-0.9421 1.458983,-3.52778 1.08712,-1.83945 2.856653,-4.89858 3.932308,-6.79806 1.736302,-3.06614 2.005083,-3.38277 2.395749,-2.82222 0.860849,1.23525 7.583561,12.86054 7.583561,13.11393 0,0.30075 -1.897418,0.21821 -2.42087,-0.10531 -0.196003,-0.12114 -1.502798,-2.22447 -2.903925,-4.67407 -2.35137,-4.11079 -2.585826,-4.40233 -3.04412,-3.78544 -0.634294,0.8538 -3.625532,6.31001 -3.625532,6.61319 0,0.12584 1.389062,0.23379 3.086805,0.23989 2.851785,0.0102 3.134008,0.076 3.706954,0.86379 l 0.620113,0.8527 -5.136198,0.10635 c -2.824903,0.0585 -5.369137,0.0239 -5.653828,-0.077 z m 37.043011,-0.16946 c -0.24543,-0.19403 -1.23832,-1.70215 -2.20649,-3.35139 l -1.76025,-2.99861 1.51408,-0.18816 c 1.87445,-0.23295 2.65247,-0.84699 2.65247,-2.09341 0,-1.74206 -0.88508,-2.12815 -4.87846,-2.12815 h -3.58821 v 5.46806 5.46805 h -1.05833 -1.05833 v -6.35 -6.35 h 5.28609 c 5.27061,0 5.28927,0.003 6.36228,0.97014 1.98984,1.79384 1.74395,4.78703 -0.50211,6.11225 l -1.21183,0.71499 1.38278,2.39842 c 0.76052,1.31913 1.38279,2.4619 1.38279,2.5395 0,0.29698 -1.89174,0.1241 -2.31648,-0.21169 z m 9.37203,-0.14327 c -3.30612,-1.16632 -4.93815,-3.74562 -4.48895,-7.0945 0.25795,-1.92317 1.36881,-3.31038 3.5023,-4.37354 4.20127,-2.09358 9.46697,-0.53527 11.06971,3.27592 2.21989,5.27876 -4.00505,10.33629 -10.08306,8.19212 z m 5.80277,-2.29694 c 3.17627,-1.86142 3.24739,-5.03499 0.1644,-7.33678 -4.01719,-2.99924 -10.3481,1.72553 -7.66456,5.72005 1.66148,2.47314 4.8617,3.16298 7.50016,1.61673 z m 11.5594,2.31995 c -3.23186,-1.14676 -4.66217,-3.02746 -4.66217,-6.13033 0,-2.47438 1.09781,-4.1141 3.58387,-5.35295 4.57627,-2.28046 9.96467,-0.35299 11.27923,4.03472 1.47782,4.93246 -4.66037,9.41449 -10.20093,7.44856 z m 5.46665,-2.20892 c 4.015,-1.94364 3.16032,-6.9633 -1.386,-8.13998 -1.46812,-0.37998 -1.86192,-0.34875 -3.34295,0.26505 -2.21725,0.91891 -3.41306,2.62085 -3.16608,4.50615 0.44101,3.36668 4.40517,5.05818 7.89503,3.36878 z m -399.24272,-2.96248 v -5.46806 h -2.64583 c -2.58704,0 -2.64583,-0.0196 -2.64583,-0.88194 v -0.88195 h 6.52638 6.52639 v 0.88195 c 0,0.86234 -0.0588,0.88194 -2.64583,0.88194 h -2.64583 v 5.46806 5.46805 h -1.23473 -1.23472 z m 10.23056,-0.88195 v -6.35 h 5.64444 5.64445 v 0.88195 0.88194 h -4.58611 -4.58612 v 4.58611 4.58611 h 4.58612 4.58611 v 0.88195 0.88194 h -5.64445 -5.64444 z m 64.91111,0 v -6.35 h 1.23472 1.23473 v 5.45752 5.45751 l 4.49791,0.0987 c 4.36157,0.0957 4.50134,0.12279 4.61065,0.89248 l 0.11273,0.79375 h -5.84537 -5.84537 z m 45.86111,5.46806 c 0,-0.85675 0.0706,-0.88195 2.46945,-0.88195 h 2.46944 v -4.58611 -4.58611 h -2.46944 c -2.39889,0 -2.46945,-0.0252 -2.46945,-0.88194 v -0.88195 h 6.35 6.35 v 0.88195 c 0,0.86234 -0.0588,0.88194 -2.64583,0.88194 h -2.64583 v 4.58611 4.58611 h 2.64583 c 2.58704,0 2.64583,0.0196 2.64583,0.88195 v 0.88194 h -6.35 -6.35 z m 29.381906,0.61736 c 1.356307,-2.50976 7.802016,-13.4691 7.877447,-13.39366 0.219671,0.21967 7.896208,13.37813 7.896208,13.535 0,0.0912 -0.594438,0.11656 -1.32097,0.0563 -1.291597,-0.10705 -1.377576,-0.20755 -3.866317,-4.51921 -1.399943,-2.42535 -2.648286,-4.40972 -2.774097,-4.40972 -0.125811,0 -1.147381,1.5875 -2.270153,3.52778 l -2.041409,3.52777 3.226058,0.10788 c 2.950803,0.0987 3.280135,0.18144 3.859883,0.97014 l 0.633832,0.86226 h -5.681733 c -3.124955,0 -5.61739,-0.11906 -5.538749,-0.26458 z m 43.290322,-6.08542 v -6.35 h 5.820834 5.820833 v 0.88195 0.88194 h -4.586111 -4.586111 v 4.58611 4.58611 h 4.586111 4.586111 v 0.88195 0.88194 h -5.820833 -5.820834 z m 58.2083354,5.46806 c 0,-0.86235 0.058797,-0.88195 2.6458336,-0.88195 h 2.645833 v -4.58611 -4.58611 h -2.645833 c -2.5870362,0 -2.6458336,-0.0196 -2.6458336,-0.88194 v -0.88195 h 6.5263886 6.52639 v 0.88195 c 0,0.86234 -0.0588,0.88194 -2.645834,0.88194 h -2.645833 v 4.58611 4.58611 h 2.645833 c 2.587036,0 2.645834,0.0196 2.645834,0.88195 v 0.88194 h -6.52639 -6.5263886 z m 15.1694446,-5.46806 v -6.35 h 1.679815 1.679819 l 4.141015,5.15259 4.141018,5.15258 v -5.15258 -5.15259 h 1.234723 1.234722 v 6.35 6.35 l -1.675695,-0.005 -1.675694,-0.005 -4.056945,-4.96351 -4.056944,-4.96352 -0.09788,4.96852 -0.09788,4.96852 h -1.225039 -1.225035 v -6.35 z m 21.793219,0.97014 -0.09739,-5.37986 -2.734028,-0.10303 c -2.640689,-0.0995 -2.734027,-0.13264 -2.734027,-0.97014 v -0.86711 h 6.526389 6.526389 v 0.88195 c 0,0.86234 -0.0588,0.88194 -2.645834,0.88194 h -2.645833 v 5.46806 5.46805 h -1.049144 -1.049147 z m -275.087667,-0.41511 c 0,-1.04848 0.28975,-1.11492 4.2382,-0.97186 2.68035,0.0971 3.12389,0.2019 3.27332,0.77332 0.0951,0.36354 0.0843,0.74956 -0.024,0.85781 -0.10826,0.10824 -1.83724,0.19681 -3.84219,0.19681 -3.62384,0 -3.64537,-0.005 -3.64537,-0.85608 z m 97.71944,-0.002 c 0,-0.84054 0.0673,-0.85999 3.35926,-0.97014 1.8476,-0.0618 3.51447,-0.0595 3.70417,0.005 0.1897,0.0647 0.34491,0.50124 0.34491,0.97014 0,0.84741 -0.0223,0.85254 -3.70417,0.85254 -3.68805,0 -3.70417,-0.004 -3.70417,-0.85773 z m 86.077784,-0.0242 v -0.88195 h 3.704167 3.704166 v 0.88195 0.88194 h -3.704166 -3.704167 z m 66.242338,-17.37657 c -0.723036,-1.30839 -2.502119,-4.40295 -3.953514,-6.8768 l -2.638901,-4.49792 h 1.352024 c 1.33053,0 1.379979,0.0491 3.110424,3.0868 0.967119,1.69775 2.127335,3.7615 2.578256,4.58612 0.450917,0.82461 0.917564,1.4993 1.036993,1.4993 0.119426,0 1.391998,-2.06375 2.827938,-4.58611 l 2.610795,-4.58611 h 1.360431 1.360431 l -0.901079,1.4993 c -0.495593,0.82462 -2.290529,3.91547 -3.988745,6.86855 -1.698216,2.95308 -3.167042,5.37296 -3.264056,5.3775 -0.09701,0.005 -0.767962,-1.06224 -1.490997,-2.37063 z M -191.36164,183.273 c -4.13892,-1.29243 -6.19255,-5.34784 -4.43575,-8.75945 2.27935,-4.42634 9.71774,-5.14248 12.99233,-1.25085 1.10594,1.31434 1.10655,1.4975 0.007,1.99863 -0.79369,0.36163 -0.99987,0.27854 -2.02848,-0.81746 -1.63725,-1.74452 -3.86489,-2.27829 -6.04054,-1.4474 -5.21134,1.99023 -3.5993,8.67562 2.09246,8.6778 1.51771,7.1e-4 4.74337,-1.71489 4.74337,-2.52262 0,-0.23212 0.41094,-0.0372 0.9132,0.43321 l 0.91319,0.85524 -1.45875,1.2972 c -0.97747,0.86922 -2.04102,1.42207 -3.22361,1.67569 -2.17034,0.46546 -2.57586,0.45277 -4.47412,-0.13999 z m 27.35023,0.23047 -0.97014,-0.11162 v -6.32657 -6.32657 l 1.6757,0.0195 1.67569,0.0195 4.05695,5.04333 4.05694,5.04333 0.0976,-5.06284 0.0976,-5.06284 h 1.23325 1.23325 l -0.0961,6.42083 -0.0961,6.42083 -0.97014,-0.0356 c -0.53358,-0.0195 -1.25853,-0.0514 -1.611,-0.0708 -0.37399,-0.0206 -2.394,-2.17499 -4.8507,-5.17339 l -4.20983,-5.13812 -0.17639,5.22631 -0.17639,5.22631 z m 20.97697,0.019 c -0.31037,-0.10344 -0.42766,-1.63416 -0.42766,-5.58119 v -5.43866 h -2.64583 c -2.58704,0 -2.64584,-0.0196 -2.64584,-0.88195 v -0.88194 h 6.52639 6.52639 v 0.88194 c 0,0.86235 -0.0588,0.88195 -2.64583,0.88195 h -2.64584 v 5.42693 c 0,5.37431 -0.008,5.42842 -0.80706,5.58121 -0.44389,0.0848 -0.99951,0.0901 -1.23472,0.0117 z m 20.22193,-0.22095 c -0.50322,-0.38086 -4.1296,-6.26984 -3.9633,-6.43613 0.0457,-0.0457 0.79372,-0.16871 1.66233,-0.2734 1.67746,-0.20218 2.46527,-0.89303 2.46527,-2.16184 0,-1.5325 -0.9998,-1.92753 -4.87847,-1.92753 h -3.5882 v 5.46805 5.46806 h -1.05833 -1.05833 v -6.35 -6.35 h 5.26459 c 5.13395,0 5.29125,0.0224 6.33801,0.90321 2.0705,1.74221 1.67764,5.37552 -0.67736,6.26443 -0.5761,0.21746 -1.04747,0.48824 -1.04747,0.60175 0,0.1135 0.45937,0.93072 1.02083,1.81604 1.87404,2.95506 1.89114,3.01516 0.91116,3.2025 -0.48005,0.0918 -1.10588,-0.01 -1.39073,-0.22513 z m 9.41259,-0.15946 c -3.08254,-1.09376 -4.70805,-3.10685 -4.75001,-5.88254 -0.0517,-3.41798 2.70544,-6.12102 6.55529,-6.42673 2.90636,-0.23079 4.87593,0.35528 6.54576,1.94778 1.76933,1.6874 2.43667,3.74486 1.84989,5.70336 -1.21038,4.03989 -5.90353,6.18296 -10.20093,4.65813 z m 5.19109,-1.98373 c 4.20569,-2.17484 3.54384,-7.16054 -1.11046,-8.36517 -1.46811,-0.37997 -1.8619,-0.34875 -3.34295,0.26505 -2.21724,0.91891 -3.41304,2.62085 -3.16608,4.50615 0.41233,3.14777 4.63276,5.13847 7.61949,3.59397 z m 111.062436,2.2685 c -4.0486826,-1.00896 -6.4764817,-4.91788 -5.182147,-8.34362 1.97166447,-5.21845 10.6850642,-5.90581 13.851873,-1.09271 0.858231,1.30439 0.975681,1.78305 0.859959,3.5047 -0.09942,1.47903 -0.376918,2.31242 -1.074561,3.22708 -1.6993941,2.22802 -5.4951949,3.44219 -8.455124,2.70455 z m 4.3726842,-2.25205 c 2.0889595,-0.87282 3.3125868,-2.78701 2.9652168,-4.63865 -0.4568997,-2.43549 -3.6485968,-4.39074 -6.3423939,-3.88538 -1.6273322,0.30529 -3.57158228,2.00511 -4.08994338,3.57575 -1.13621962,3.44278 3.58399308,6.57076 7.46712048,4.94828 z m 26.0362428,2.26395 -5.485095,-0.17639 3.959218,-6.81794 3.959215,-6.81793 2.54835,4.34849 c 1.401593,2.39167 3.235759,5.49943 4.07592,6.90613 l 1.52757,2.55764 H 42.46471 41.081704 l -2.578149,-4.57688 c -1.417983,-2.51727 -2.663381,-4.58102 -2.767552,-4.58611 -0.193182,-0.009 -4.22032,6.87298 -4.22032,7.21255 0,0.10261 1.410494,0.18655 3.134427,0.18655 2.98214,0 3.163479,0.0443 3.732354,0.91255 0.328859,0.50191 0.545557,0.93847 0.481545,0.97014 -0.06401,0.0317 -2.584672,-0.0218 -5.601476,-0.1188 z m 16.269977,-0.0386 c -5.101463,-1.54783 -6.933709,-6.77547 -3.618688,-10.32461 2.98734,-3.19831 9.108027,-3.10181 11.875572,0.18723 1.099231,1.30636 1.104004,1.49866 0.04913,1.97929 -0.73038,0.33279 -0.974072,0.2436 -1.852083,-0.67782 -1.138209,-1.19448 -2.944301,-2.06157 -4.294131,-2.06157 -1.323591,0 -3.798126,1.30492 -4.496905,2.37138 -0.768328,1.17262 -0.779931,3.33815 -0.02406,4.49175 0.766964,1.17054 3.049432,2.30909 4.629055,2.30909 1.465866,0 3.7904,-1.08768 4.505036,-2.10797 0.489617,-0.69902 0.503015,-0.69747 1.299369,0.15021 l 0.80465,0.8565 -0.939962,0.87113 c -2.015578,1.86798 -5.442497,2.71225 -7.936989,1.95539 z m 16.467202,0.11829 -5.909028,-0.0967 v -0.87342 c 0,-0.85172 0.06569,-0.87341 2.645833,-0.87341 h 2.645834 v -4.58611 -4.58611 h -2.645834 c -2.587036,0 -2.645833,-0.0196 -2.645833,-0.88195 v -0.88194 h 6.526389 6.526389 v 0.88194 c 0,0.86235 -0.0588,0.88195 -2.645833,0.88195 h -2.645834 v 4.58611 4.58611 h 2.645834 c 2.552509,0 2.645833,0.0297 2.645833,0.8408 0,0.5163 -0.238262,0.89071 -0.617361,0.97014 -0.339549,0.0711 -3.276424,0.0858 -6.526389,0.0326 z m 13.763403,-0.0907 c -2.9643,-0.7391 -5.16472,-3.06455 -5.471001,-5.78189 -0.348375,-3.09077 1.924607,-5.92972 5.523456,-6.89879 l 1.475235,-0.39724 -0.807413,-0.6538 c -0.806718,-0.65325 -0.806813,-0.65447 -0.108867,-1.42569 1.221853,-1.35013 1.866794,-1.52179 2.840355,-0.75598 l 0.879263,0.69162 -1.251655,1.03173 -1.251666,1.03172 1.923884,0.43055 c 5.093652,1.13991 7.359297,5.64496 4.838206,9.62031 -1.630327,2.57075 -5.348111,3.91571 -8.589797,3.10746 z m 4.697141,-2.47262 c 1.571272,-0.80161 2.791002,-2.50577 2.793012,-3.90235 0.0035,-1.28816 -1.374492,-3.20194 -2.827937,-3.93217 -4.317079,-2.16897 -9.56902,1.86178 -7.46874,5.73209 1.384932,2.55209 4.76558,3.4993 7.503665,2.10243 z m 7.979375,2.61224 c -0.135396,-0.13538 -0.246168,-3.08589 -0.246168,-6.55669 v -6.31053 l 1.666593,0.10752 1.666557,0.10753 3.889693,4.82584 c 2.139314,2.65421 4.008724,4.83702 4.154244,4.85069 0.14552,0.0137 0.26458,-2.19764 0.26458,-4.91403 v -4.93889 h 1.23472 1.23472 v 6.35 6.35 h -1.71238 -1.71235 l -3.972169,-4.8507 c -2.184718,-2.66788 -4.112895,-4.90361 -4.284875,-4.96828 -0.172473,-0.0649 -0.312667,2.10999 -0.312667,4.85069 0,2.78198 -0.142557,4.96829 -0.32392,4.96829 -0.178153,0 -0.543631,0.0843 -0.812165,0.18736 -0.26857,0.10305 -0.599052,0.0766 -0.734413,-0.0588 z m -271.885061,-6.47856 v -6.35 h 5.82083 5.82083 v 0.88194 0.88195 h -4.58611 -4.58611 v 4.58611 4.58611 h 4.58611 4.58611 v 0.88194 0.88195 h -5.82083 -5.82083 z m 87.841665,0 v -6.35 l 4.145139,0.004 c 3.637654,0.003 4.369107,0.10772 5.974514,0.85519 4.983536,2.32031 5.063067,8.42336 0.143612,11.02053 -1.384529,0.73086 -2.031619,0.82075 -5.909028,0.82075 h -4.354237 z m 8.582663,4.10491 c 0.63342,-0.26466 1.597816,-1.01141 2.143104,-1.65945 0.843746,-1.00274 0.965751,-1.40616 0.819002,-2.70812 -0.313799,-2.78402 -2.669279,-4.30261 -6.694075,-4.31571 l -2.38125,-0.008 v 4.58611 4.58611 h 2.480776 c 1.364424,0 2.999027,-0.21654 3.632443,-0.4812 z m 7.997893,-4.10491 v -6.35 h 5.820833 5.820834 v 0.88194 0.88195 h -4.586112 -4.586111 v 4.58611 4.58611 h 4.586111 4.586112 v 0.88194 0.88195 h -5.820834 -5.820833 z m 23.283334,5.46805 c 0,-0.86234 0.0588,-0.88194 2.645833,-0.88194 h 2.645834 v -4.58611 -4.58611 h -2.645834 c -2.587036,0 -2.645833,-0.0196 -2.645833,-0.88195 v -0.88194 h 6.35 6.35 v 0.88194 c 0,0.86235 -0.0588,0.88195 -2.645833,0.88195 h -2.645834 v 4.58611 4.58611 h 2.645834 c 2.587036,0 2.645833,0.0196 2.645833,0.88194 v 0.88195 h -6.35 -6.35 z m 15.169445,-5.46805 v -6.35 h 1.555111 1.555112 l 4.001138,4.93649 c 2.200625,2.71507 4.120202,4.93757 4.265722,4.93889 0.145521,0.001 0.264584,-2.2201 0.264584,-4.93649 v -4.93889 h 1.058333 1.058334 v 6.35 6.35 h -1.551955 -1.551957 l -4.180682,-5.02708 -4.180685,-5.02709 -0.09788,5.02709 -0.09788,5.02708 h -1.048649 -1.048646 z m 17.286111,0 v -6.35 h 1.572737 1.572732 l 4.159907,5.15508 4.1599025,5.15509 0.097624,-5.15509 0.097628,-5.15508 h 1.0489 1.0489037 v 6.35 6.35 h -1.5347139 -1.5347175 l -4.2861158,-5.15253 -4.28612,-5.15253 v 5.15253 5.15253 h -1.058333 -1.058334 z m -156.280561,0.52917 V 176.736 h 3.70417 3.70416 v 0.88195 0.88194 h -3.70416 -3.70417 z m 104.422226,0 V 176.736 h 3.704167 3.704167 v 0.88195 0.88194 h -3.704167 -3.704167 z M -86.9126,141.72274 c -4.252765,-4.70518 -11.595732,-12.84111 -16.31771,-18.07986 -9.59194,-10.64168 -12.62049,-13.99196 -17.06118,-18.87362 l -3.04866,-3.35138 -0.007,-31.574649 -0.007,-31.574645 22.49061,-22.48855 22.490611,-22.4885493 34.218423,-0.015949 34.2184188,-0.015949 22.4787392,22.6819213 22.47874,22.681921 0.01083,31.414131 0.01083,31.414128 -3.96875,4.41325 c -2.182813,2.42729 -10.398126,11.53862 -18.256251,20.24741 -7.8581253,8.70879 -15.9543755,17.70214 -17.9916673,19.98522 l -3.7041668,4.15106 -35.1514669,0.0145 -35.151435,0.0145 z m 84.2519046,-8.11389 C 2.4508396,127.93354 7.217245,122.6551 7.9313131,121.87899 8.6453847,121.10288 13.602657,115.626 18.947473,109.70815 l 9.71785,-10.759719 0.0061,-28.751389 0.0061,-28.751389 L 7.959814,20.5261 -12.75793,-0.39344927 l -31.396111,0.0174682 -31.396112,0.0174678 -20.726807,20.72457227 -20.72681,20.724573 v 28.822103 28.8221 l 13.31737,14.767125 c 7.324544,8.12193 16.492357,18.28785 20.372913,22.59094 l 7.055555,7.8238 32.15177,0.005 32.151769,0.005 9.2936976,-10.31875 z m -42.7291796,6.4291 c -3.217157,-0.56685 -5.295262,-2.79826 -5.852732,-6.2845 l -0.228469,-1.42876 -0.893406,0.58538 c -0.544333,0.35666 -1.613677,0.58538 -2.73684,0.58538 -3.379879,0 -5.869573,-2.52794 -5.869573,-5.95976 0,-1.88966 0.732194,-3.34776 2.351271,-4.68234 l 1.248861,-1.02942 -0.09497,-8.06105 -0.09497,-8.06105 -6.438194,-2.98517 -6.438195,-2.985175 v -1.882013 -1.882013 l -1.146528,0.255764 c -0.63059,0.14067 -3.607153,0.253499 -6.614583,0.25073 -7.728353,-0.0071 -11.689578,-1.236014 -16.480981,-5.112922 -1.983702,-1.605086 -5.052537,-5.557887 -5.027557,-6.475716 0.01806,-0.663606 3.017563,-2.71617 5.368418,-3.673619 6.781204,-2.76183 14.674931,-0.299505 22.225536,6.932912 l 1.675695,1.605079 -1.45e-4,-7.74785 -1.44e-4,-7.74785 -4.144995,-0.02512 c -3.453952,-0.02092 -4.492403,-0.160937 -6.2288,-0.839798 -2.511626,-0.981943 -4.808932,-3.160085 -5.413096,-5.132307 l -0.432273,-1.411111 8.609352,-8.612625 8.609355,-8.612621 2.08281,2.086233 c 4.187593,4.194478 5.62917,9.352033 3.984964,14.257069 -0.740371,2.208703 -3.062228,6.220495 -4.097362,7.079576 -0.414415,0.343937 -0.500222,2.542318 -0.500222,12.816106 V 98.26035 l 6.52639,2.98114 6.526389,2.98113 v 8.73999 c 0,7.63419 0.06873,8.73999 0.543221,8.73999 0.924638,0 3.233018,1.34359 4.01386,2.33627 0.408771,0.51967 0.840941,1.55597 0.960377,2.3029 0.233342,1.45924 0.501262,1.65312 1.170344,0.84693 0.233306,-0.28112 0.967119,-0.6903 1.630694,-0.9093 l 1.206504,-0.39818 v -12.07301 -12.073 l -6.790972,-3.711224 -6.790973,-3.711219 -0.09444,-8.295453 -0.09444,-8.295457 6.885414,-3.623028 6.885415,-3.623027 v -6.763601 -6.7636 l -1.039467,-0.912117 c -1.853879,-1.62675 -1.853339,-3.881346 0.0014,-5.613873 l 1.038056,-0.969758 V 37.075516 24.698177 l -1.310005,-0.547355 c -2.588447,-1.081522 -3.981662,-3.238666 -3.981662,-6.164891 0,-4.217454 3.17204,-7.030112 7.463349,-6.617771 2.143584,0.205971 4.018383,1.590663 5.148457,3.802554 1.757458,3.439867 0.190768,7.421006 -3.532593,8.976724 l -1.318101,0.550739 v 12.307211 12.30721 l 1.234722,1.234722 c 1.022092,1.022092 1.234722,1.491816 1.234722,2.72765 0,1.24921 -0.201567,1.683032 -1.234722,2.657422 l -1.234722,1.164494 3.52e-4,6.638273 3.53e-4,6.638272 6.878786,3.642328 6.878789,3.642329 -0.01118,8.352116 -0.01118,8.352116 -6.863002,3.704167 -6.863003,3.704163 -0.005,12.02913 -0.005,12.02913 1.499305,0.64566 c 0.824618,0.35512 1.618368,0.70993 1.763889,0.78847 0.145521,0.0785 0.264584,-0.24383 0.264584,-0.71637 0,-1.90354 3.136261,-4.82308 5.197415,-4.83827 l 0.787693,-0.006 0.09425,-8.86164 0.09425,-8.86164 6.526389,-2.89542 6.526389,-2.895417 0.09277,-11.26169 0.09277,-11.261693 6.238134,-6.246364 c 4.0926985,-4.0981 6.0627049,-6.303123 5.7280634,-6.411398 -3.3713704,-1.090827 -3.1117224,-1.110512 -4.6066424,0.34924 l -1.383027,1.350489 -1.481335,-1.481335 -1.481335,-1.481335 1.177487,-1.214861 1.177488,-1.214857 -0.672116,-0.997013 c -0.369665,-0.548355 -0.942142,-1.592323 -1.272173,-2.319927 -0.566046,-1.247941 -0.691346,-1.322917 -2.210869,-1.322917 h -1.610812 l 0.105802,-2.028472 0.105798,-2.028472 h 1.303327 c 1.245951,0 1.320536,-0.06835 1.694194,-1.552596 0.214976,-0.853927 0.634157,-2.023071 0.931517,-2.598103 0.522947,-1.011269 0.505016,-1.082273 -0.547568,-2.168264 l -1.08822,-1.122757 1.408123,-1.374998 1.408123,-1.374993 0.978786,0.93774 0.978789,0.937736 2.072428,-1.045355 c 1.1398744,-0.574929 2.2882225,-1.045337 2.5519204,-1.045337 0.333054,0 0.4794532,-0.484731 0.4794532,-1.5875 v -1.5875 h 2.1166668 2.1166667 v 1.5875 c 0,1.303323 0.1155982,1.5875 0.6457668,1.5875 0.3551732,0 1.4233384,0.393658 2.37370064,0.87479 l 1.72793383,0.874794 1.25803033,-1.228432 1.2580267,-1.228433 1.377555,1.410745 1.3775549,1.410744 -1.1670489,1.204087 -1.1670489,1.20409 0.8986838,2.236724 c 0.8388667,2.087842 0.9764395,2.240386 2.0667945,2.291719 0.6424578,0.03023 1.3665447,0.06994 1.6090795,0.08819 0.2953032,0.02222 0.4409722,0.674148 0.4409722,1.973478 v 1.940278 H 7.3571249 c -1.4329093,0 -1.602539,0.09075 -1.8133978,0.970139 -0.1279384,0.533576 -0.4619555,1.424912 -0.7422586,1.980741 -0.4874577,0.966608 -0.4589568,1.062898 0.6546709,2.211871 l 1.1643149,1.201268 -1.4879391,1.487939 -1.4879391,1.487936 -2.1715519,-2.171552 -2.17155544,-2.171555 0.95072203,-1.12987 C 1.6500551,55.469357 2.2351265,53.791115 2.2351265,51.442684 c 0,-5.855998 -5.9745282,-9.730856 -11.2888892,-7.321553 -2.1335123,0.967242 -3.1089533,1.925341 -4.1001883,4.0273 -1.32117,2.801606 -1.027779,5.719681 0.826061,8.215965 1.068444,1.438713 3.0951596,2.807826 4.6028154,3.109355 l 1.1407564,0.228152 -0.013582,-1.719791 c -0.012206,-1.546698 -0.1276174,-1.791378 -1.1465279,-2.431017 -1.6318301,-1.02441 -2.3229289,-3.140692 -1.624711,-4.975196 0.6298777,-1.654941 2.4373629,-2.956635 4.1054833,-2.956635 3.7430464,0 5.70877361,4.395259 3.2289116,7.219668 -0.6021847,0.68585 -1.3165597,1.246999 -1.5875001,1.246999 -0.3873359,0 -0.4945803,0.735143 -0.5017876,3.439583 l -0.00917,3.439584 -6.6783061,6.879166 -6.678302,6.879167 -0.01531,4.850695 -0.01531,4.850694 h 3.699433 3.699432 l 0.5526163,-1.322917 c 2.4241443,-5.803215 10.09755157,-6.213316 12.9152089,-0.690248 0.9921205,1.944716 0.80784,5.285274 -0.3878227,7.030226 -1.3547337,1.977104 -2.97032548,2.872839 -5.4685214,3.03191 -1.7138897,0.109132 -2.5031489,-0.01912 -3.6179549,-0.587837 -1.7155373,-0.8752 -3.2417704,-2.603165 -3.5176567,-3.982611 l -0.2018172,-1.009079 h -3.8272683 -3.827272 l -0.09738,5.379862 -0.09739,5.379861 -6.614583,2.991543 -6.614584,2.99154 v 8.23193 8.23193 l 1.071005,0.90119 c 1.471578,1.23825 2.103995,2.60248 2.103995,4.53867 0,2.14993 -0.86833,3.90673 -2.436385,4.92929 -1.743029,1.13666 -3.4461,1.38456 -5.247683,0.76387 l -1.488154,-0.51272 v 0.94233 c 0,1.39415 -1.414187,3.91183 -2.828438,5.03545 -1.386234,1.10137 -3.771594,1.66784 -5.638229,1.33894 z m 2.42752,-47.654156 c 1.140302,-0.39751 2.158591,-1.842107 2.158591,-3.062287 0,-0.414782 1.140612,-1.570045 3.022872,-3.061702 2.760091,-2.187328 3.098871,-2.360948 3.897154,-1.997223 1.266052,0.576851 2.035605,0.493874 3.086566,-0.332811 1.812092,-1.425392 0.700172,-4.560507 -1.617455,-4.560507 -1.469245,0 -2.863737,1.498399 -2.663596,2.862069 0.142509,0.970947 -0.09907,1.256753 -2.989213,3.536565 -2.705371,2.134055 -3.201952,2.40446 -3.557651,1.937248 -0.558126,-0.733097 -2.204819,-1.310929 -2.967976,-1.041474 -0.341231,0.120484 -0.97348,0.536698 -1.40499,0.924916 l -0.784568,0.705855 -2.74321,-2.135886 c -2.700183,-2.102386 -2.741465,-2.158439 -2.631994,-3.573656 0.206505,-2.669593 -2.547239,-4.198567 -4.410008,-2.448588 -1.959085,1.840466 -0.294848,4.813437 2.448906,4.374695 1.236457,-0.197718 1.531584,-0.04917 4.318599,2.17371 2.354891,1.878228 2.992283,2.579286 2.995391,3.294582 0.0038,0.887726 1.063297,2.159867 2.120618,2.546378 0.291041,0.106394 0.545165,0.205973 0.564719,0.22129 0.01954,0.01531 0.540315,-0.14811 1.157245,-0.363174 z m -42.21642,-36.829361 c -1.344694,-0.584243 -2.368688,-2.595679 -2.02287,-3.973531 0.121069,-0.482374 0.676031,-1.332953 1.233254,-1.890172 2.253326,-2.25333 6.006293,-0.521642 6.006293,2.771408 0,1.248043 -0.797324,2.412368 -2.120562,3.096641 -1.240462,0.641466 -1.610907,0.640948 -3.096115,-0.0043 z M -55.244059,28.48107 c 0.03798,-0.709842 4.827601,-4.57243 5.107749,-4.119143 0.270655,0.437928 0.109679,0.617118 -2.640813,2.939581 -1.991621,1.681692 -2.506987,1.928114 -2.466936,1.179562 z m 19.632881,-1.551199 c -1.303701,-1.095696 -2.370363,-2.220175 -2.370363,-2.498845 0,-0.278666 0.148152,-0.453753 0.329229,-0.389075 0.600358,0.214432 4.962437,4.214054 4.962437,4.550096 0,0.637674 -0.57229,0.312049 -2.921303,-1.662176 z M -58.17807,18.429884 c -1.894092,-0.09816 -2.38125,-0.238654 -2.38125,-0.686717 0,-0.479372 0.323092,-0.529533 2.168416,-0.336659 1.192629,0.124654 2.700754,0.226645 3.351389,0.226645 0.816345,0 1.182973,0.164 1.182973,0.529167 0,0.358838 -0.312268,0.506928 -0.970139,0.460072 -0.533576,-0.038 -2.041701,-0.12463 -3.351389,-0.192508 z m 24.077084,-0.219614 c 0,-0.41957 0.322944,-0.577117 1.182974,-0.577117 0.650635,0 2.15876,-0.101991 3.351389,-0.226645 1.867877,-0.195231 2.168415,-0.146336 2.168415,0.352778 0,0.457905 -0.359604,0.579423 -1.714652,0.579423 -0.943056,0 -2.451181,0.100954 -3.351389,0.224338 -1.371554,0.187996 -1.636737,0.130839 -1.636737,-0.352777 z M -53.452403,9.5492887 c -2.284279,-2.5702243 -2.452518,-2.8522465 -1.701507,-2.8522465 0.528944,0 4.472368,4.3320308 4.472368,4.9131018 0,0.798547 -0.677238,0.294844 -2.770861,-2.0608553 z m 16.176417,2.0608553 c 0,-0.581071 3.943424,-4.9131018 4.472369,-4.9131018 0.751011,0 0.582771,0.2820222 -1.701507,2.8522465 -2.093624,2.3556993 -2.770862,2.8594023 -2.770862,2.0608553 z m -7.173147,-3.737176 c -0.129353,-0.1293516 -0.235186,-1.3993516 -0.235186,-2.8222222 0,-2.0644033 0.106902,-2.5870369 0.529166,-2.5870369 0.426272,0 0.529167,0.5487656 0.529167,2.8222222 0,2.5926687 -0.197333,3.2128538 -0.823147,2.5870369 z"
       id="path124" />
  </g>
</svg>
